<svg width="131" height="36" viewBox="0 0 131 36" fill="none" xmlns="http://www.w3.org/2000/svg">
<mask id="mask0_7_12466" style="mask-type:luminance" maskUnits="userSpaceOnUse" x="0" y="0" width="127" height="36">
<path d="M126.612 0.663452H0.692627V35.3363H126.612V0.663452Z" fill="white"/>
</mask>
<g mask="url(#mask0_7_12466)">
<path d="M53.5959 10.3557C52.7121 10.3459 51.8371 10.5339 51.0354 10.9057C50.2844 11.2498 49.627 11.7691 49.1183 12.4199V10.5702H45.3643V25.4259H49.1183V17.2205C49.1183 16.0405 49.4177 15.1334 50.0164 14.499C50.615 13.8646 51.4328 13.5469 52.4697 13.5461C53.4882 13.5461 54.2927 13.8637 54.883 14.499C55.4733 15.1342 55.7686 16.0414 55.7686 17.2205V25.4259H59.5226V16.7103C59.5226 14.7089 58.9773 13.1495 57.8864 12.032C56.7955 10.9145 55.3653 10.3557 53.5959 10.3557Z" fill="#265DF5"/>
<path d="M73.3154 12.6879C72.785 11.9828 72.1031 11.4057 71.3199 10.9992C70.4884 10.5527 69.5189 10.329 68.4114 10.3281C67.1974 10.3129 66.0036 10.6383 64.9652 11.2673C63.9164 11.9148 63.0707 12.8439 62.5244 13.9489C61.9257 15.1129 61.6265 16.4432 61.6265 17.94C61.6265 19.4607 61.9257 20.806 62.5244 21.976C63.0721 23.0904 63.9167 24.0321 64.9652 24.6974C65.9889 25.3398 67.1755 25.6749 68.384 25.6628C69.4043 25.6841 70.4138 25.4491 71.3199 24.9792C72.114 24.5707 72.7984 23.9774 73.3154 23.2494V25.4221H77.097V10.5701H73.3154V12.6879ZM72.7791 20.3446C72.4456 20.9689 71.944 21.4873 71.3312 21.8413C70.7368 22.186 70.0614 22.3663 69.3742 22.3638C68.6976 22.3651 68.0339 22.1795 67.456 21.8276C66.8426 21.4542 66.3423 20.9214 66.008 20.2859C65.6291 19.5627 65.4402 18.7551 65.4591 17.9386C65.4591 17.0456 65.642 16.2728 66.008 15.6201C66.2568 15.1698 66.5929 14.7737 66.9966 14.455C67.4005 14.1362 67.8637 13.9013 68.3595 13.7639C68.8552 13.6265 69.3735 13.5894 69.8837 13.6547C70.3939 13.7201 70.886 13.8867 71.3312 14.1447C71.944 14.4987 72.4456 15.0171 72.7791 15.6413C73.1366 16.2941 73.3154 17.076 73.3154 17.9873C73.3154 18.8987 73.1366 19.6845 72.7791 20.3446Z" fill="#265DF5"/>
<path d="M89.8537 18.7545C89.8537 19.9343 89.5586 20.8415 88.9682 21.476C88.3779 22.1104 87.5647 22.4275 86.5287 22.4275C85.5093 22.4275 84.7049 22.1104 84.1153 21.476C83.5257 20.8415 83.2306 19.9343 83.2298 18.7545V10.5702H79.4756V19.2908C79.4756 20.6145 79.7305 21.7541 80.2401 22.7094C80.711 23.6263 81.4439 24.3825 82.3454 24.8821C83.2935 25.3869 84.3548 25.6407 85.4285 25.6191C86.3038 25.6273 87.1699 25.4395 87.963 25.0691C88.7092 24.7287 89.3589 24.2079 89.8537 23.5537V25.4247H93.6341V10.5752H89.8537V18.7545Z" fill="#265DF5"/>
<path d="M109.635 10.5814H104.754L99.7668 16.8836V5.59375H96.0127V25.4371H99.7668V19.1087L104.808 25.4371H109.688L103.092 18.0361L109.635 10.5814Z" fill="#265DF5"/>
<path d="M115.178 12.8863V10.5702H111.421V25.4309H115.175V18.0298C115.175 16.6529 115.475 15.6876 116.073 15.1338C116.672 14.5801 117.562 14.3028 118.742 14.3019H119.74V10.3607C118.824 10.3389 117.919 10.5614 117.117 11.0053C116.315 11.4491 115.646 12.0984 115.178 12.8863Z" fill="#265DF5"/>
<path d="M125.246 10.5702H121.492V25.4321H125.246V10.5702Z" fill="#265DF5"/>
<path d="M123.369 8.79798C124.609 8.79798 125.614 7.79286 125.614 6.55298C125.614 5.31309 124.609 4.30798 123.369 4.30798C122.13 4.30798 121.125 5.31309 121.125 6.55298C121.125 7.79286 122.13 8.79798 123.369 8.79798Z" fill="#265DF5"/>
<path d="M18.029 35.3363C27.6037 35.3363 35.3655 27.5745 35.3655 17.9999C35.3655 8.42524 27.6037 0.663452 18.029 0.663452C8.45439 0.663452 0.692627 8.42524 0.692627 17.9999C0.692627 27.5745 8.45439 35.3363 18.029 35.3363Z" fill="#265DF5"/>
<path d="M23.2423 24.422L23.2036 26.1793L23.0912 31.253V31.4488C14.5179 24.0291 13.0574 22.2193 12.8042 21.6693L12.7955 21.6507C12.765 21.5471 12.7577 21.438 12.7743 21.3314C12.7803 21.2918 12.7886 21.2526 12.7992 21.2141C12.8079 21.183 12.8167 21.1529 12.8279 21.1206C12.9203 20.8779 13.0513 20.6518 13.2158 20.4508C13.3336 20.2986 13.462 20.1548 13.5999 20.0206C13.8949 19.7289 14.2109 19.459 14.5453 19.2136C14.7112 19.0889 14.8846 18.9641 15.0679 18.8394C15.4221 18.5975 15.805 18.3555 16.2017 18.1198C19.2823 20.9934 23.1923 24.3758 23.2423 24.422Z" fill="url(#paint0_linear_7_12466)"/>
<path d="M23.3555 7.75513L23.3168 9.51871L23.2968 10.3918L23.257 12.1466L23.237 13.0272L23.1983 14.7832C23.1373 14.8082 19.2271 16.3248 16.2138 18.1171C15.8173 18.3527 15.4356 18.5948 15.0801 18.8368C14.898 18.9614 14.7234 19.0861 14.5576 19.2109C14.2237 19.457 13.9077 19.7267 13.6122 20.0178C13.4745 20.1525 13.3462 20.2961 13.228 20.4482C12.9561 20.7949 12.7927 21.1353 12.769 21.4559L12.8015 19.9904V19.9804L12.8077 19.7534V19.6711L12.8339 18.7469L12.8838 16.9148L12.9075 16.0192L12.9574 14.2033C13.5772 11.6614 22.3315 8.15798 23.3555 7.75513Z" fill="white"/>
<path d="M15.2844 9.69842C16.7054 9.69842 17.8575 8.54643 17.8575 7.1254C17.8575 5.70435 16.7054 4.55237 15.2844 4.55237C13.8634 4.55237 12.7114 5.70435 12.7114 7.1254C12.7114 8.54643 13.8634 9.69842 15.2844 9.69842Z" fill="white"/>
</g>
<defs>
<linearGradient id="paint0_linear_7_12466" x1="21.4699" y1="27.0835" x2="11.3013" y2="15.3534" gradientUnits="userSpaceOnUse">
<stop stop-color="white"/>
<stop offset="1" stop-color="#265DF5"/>
</linearGradient>
</defs>
</svg>
